<svg xmlns="http://www.w3.org/2000/svg" xmlns:xlink="http://www.w3.org/1999/xlink" xmlns:xodm="http://www.corel.com/coreldraw/odm/2003" xml:space="preserve" version="1.1" style="shape-rendering:geometricPrecision;text-rendering:geometricPrecision;image-rendering:optimizeQuality;" viewBox="0 0 60000 75000" x="0px" y="0px" fill-rule="evenodd" clip-rule="evenodd"><defs><style type="text/css">
   
    .fil0 {fill:black;fill-rule:nonzero}
   
  </style></defs><g><path class="fil0" d="M17618.42 6427.91l2095.67 3975.61c158.71,301.59 43.03,674.82 -258.39,833.61 -301.43,158.8 -674.46,43.05 -833.16,-258.53 -325.5,-617.48 -1568.53,-3093.76 -1904.45,-3456.76 -884.42,-955.74 -1318.25,1596.08 -2014.14,-2411.31 -73.32,-422.24 -153.29,-769.75 -242.93,-1183.34 -154.11,-711.05 205.3,-303.87 399.51,46.16 227.86,410.69 290.43,725.74 782.4,881.12 360.77,113.93 527.23,-222.37 1098.8,320.12 432.53,410.53 602.53,733.16 876.69,1253.32zm27344.81 1938.1c-638.16,1209.07 -1276.31,2418.15 -1914.46,3627.22 -327.26,620.04 -654.51,1240.07 -981.78,1860.11 -654.51,1240.08 -1309.03,2480.15 -1963.54,3720.22 -327.26,620.03 -654.52,1240.08 -981.78,1860.12 -965.41,1829.11 -1930.83,3658.22 -2896.24,5487.33 -1309.03,2480.15 -2618.06,4960.29 -3927.1,7440.44 -703.6,1333.08 -1407.21,2666.16 -2110.81,3999.25l-98.18 186.01 1099.21 2086.19c590.25,-1118.33 1180.51,-2236.65 1770.76,-3354.98 1440.63,-2729.48 2869.14,-5483 4328.54,-8200.32 1005.56,-1872.32 1304.9,-791.7 1672.39,-1418.44 250.04,-426.46 519.72,-2055.24 688.62,-2665.93 313.39,-1133.06 880.52,-2057.89 1426.45,-3092.24 311.52,-590.23 623.05,-1180.44 934.57,-1770.67 950.97,-1801.75 1901.93,-3603.48 2852.9,-5405.23 291.19,-551.71 642.32,-1284.42 963.62,-1796.08 285.34,-454.4 405.98,-36.84 80.62,-735.14 -277.4,-595.37 -634.33,-1240.79 -943.79,-1827.86zm-15170.45 27617.83l13081.56 -24769.03c49.59,-93.96 41.38,-163.07 -12.21,-264.91 -701.38,-1331.17 -1412.53,-2679.76 -2123.64,-4028.33 -711.11,-1348.56 -1422.27,-2697.17 -2123.64,-4028.31 -105.52,-200.52 -28.6,-448.68 171.81,-554.26 200.41,-105.59 448.44,-28.62 553.96,171.9 701.38,1331.15 1412.53,2679.75 2123.64,4028.31 646.99,1226.96 1293.99,2453.93 1933.65,3667.77l1268.76 -2403.83 -2598.69 -4932.1c-97.93,-186.08 -26.55,-416.37 159.43,-514.35 185.99,-97.98 416.16,-26.57 514.08,159.52 994.17,1886.83 2030.65,3756.67 2919.56,5695.93 348.38,760.03 646.66,1378.01 949.48,2169.35 316.87,828.05 565.02,1441.91 803.64,2307.34 156.53,567.72 614.18,2524.38 1280.09,2583.66 385.01,34.28 519.04,-12.09 828.84,329.65 361.52,398.8 725.67,1162.28 982.83,1650.36 65.53,124.36 131.05,248.72 196.57,373.07l1302.19 -2471.43c-918.38,-1743.01 -1810.86,-3502.23 -2788.47,-5212.67 -258.52,-452.32 -391.12,-695.2 -697.59,-1124.66 -293.59,-411.42 -358.39,-643.96 -871.48,-694.35 -584.74,-57.44 -982.72,-1370.09 -1169.72,-1867.93 -372.66,-992.11 -555.33,-1991.2 -903.81,-2993.44 -279.52,-803.91 380.38,-884.19 608.44,-184.89 243.12,745.52 510.79,2536.4 919.72,3048.41 162.47,203.44 306.17,180.8 524.07,301.4 412.89,228.53 509.97,135.22 844.4,619.4 294.74,426.73 696.73,1216.58 948.4,1694.25 994.3,1887.09 1988.59,3774.18 2982.89,5661.27l1335.55 -2534.75 -4762.88 -9039.55c-82.73,-157.2 -22.42,-351.76 134.7,-434.54 157.12,-82.77 351.57,-22.43 434.31,134.77l4557.35 8649.47 1368.93 -2598.13 -3042.16 -5773.77c-75.12,-142.77 -20.36,-319.46 122.33,-394.63 142.7,-75.16 319.29,-20.37 394.42,122.4l2855.5 5419.52 1402.33 -2661.51 -1321.46 -2508c-67.54,-128.32 -18.3,-287.15 109.96,-354.72 128.25,-67.57 286.99,-18.31 354.53,110.02l1153.68 2189.58 1121.18 -2127.93c108.06,-205.33 362.05,-284.15 567.27,-176.03 205.22,108.12 283.99,362.24 175.93,567.57 -981.97,1863.72 -1963.96,3727.45 -2945.94,5591.17 -589.19,1118.23 -1178.38,2236.46 -1767.57,3354.69 -327.33,621.25 -654.66,1242.49 -981.98,1863.73 -294.6,559.12 -589.19,1118.24 -883.78,1677.35 -897.95,1704.23 -1820.56,3415.62 -2700.46,5126.82 -923.02,1795.06 -1180.17,3629.54 -1767.56,5512.04 -681.66,2184.61 -999.07,-172.36 -2258.56,2130.56 -350.64,641.12 -689.69,1306.04 -1031.08,1953.98 -965.62,1832.65 -1931.23,3665.31 -2896.85,5497.98 -617.81,1172.56 -1105.28,2033.94 -1522.07,3309.37 -404.99,1239.35 -650.85,2478.63 -1006.53,3717.25 -96.72,336.82 -270.19,1103.71 -711.94,1074.62 -383.29,-25.25 -533.77,-187.84 -932.88,146.76 -387.05,324.5 -743.73,1084.35 -981.98,1536.54 -327.33,621.23 -654.65,1242.48 -981.98,1863.71 -654.66,1242.49 -1309.31,2484.97 -1963.96,3727.45 -654.66,1242.48 -1309.32,2484.96 -1963.97,3727.45 -327.32,621.23 -654.65,1242.48 -981.98,1863.71 -195.45,370.92 -552.49,1287.95 -959.41,1314.12 -287.87,27.41 -577.1,-117.68 -720.17,-389.54 -622.99,-1179.03 -1245.96,-2358.07 -1868.94,-3537.12 -670.13,-1268.26 -1334.32,-2556.09 -2016.81,-3815.74 -156.1,-288.12 -443.28,-884.65 -820.17,-886.31 -563.17,-2.49 -1074.9,830.6 -1313.84,-172.19 -231.24,-970.51 -277.05,-1960.2 -384.91,-2942.19 -139.71,-1272.02 -873.52,-2421.01 -1464.55,-3539.55 -327.88,-620.56 -655.76,-1241.1 -983.65,-1861.65 -1359.23,-2572.46 -2707.93,-5162.24 -4082.15,-7725.27 -1261.9,-2353.52 -1861.79,2119.81 -2375.43,-2873.85 -248.02,-2411.38 -896,-3318.12 -2001.82,-5410.97 -327.89,-620.54 -655.77,-1241.1 -983.65,-1861.64 -1311.54,-2482.18 -2623.07,-4964.37 -3934.61,-7446.56 -327.89,-620.54 -655.77,-1241.09 -983.65,-1861.63 -327.89,-620.56 -655.77,-1241.1 -983.66,-1861.65 -655.76,-1241.09 -1311.54,-2482.18 -1967.3,-3723.27 -868.9,-1644.45 -1737.78,-3288.9 -2606.68,-4933.34 -189.1,-359.34 -51.26,-804.04 307.89,-993.24 359.14,-189.2 803.6,-51.29 992.69,308.05 327.84,620.44 655.67,1240.89 983.5,1861.34 327.83,620.45 655.66,1240.9 983.5,1861.35 655.66,1240.89 1311.32,2481.78 1966.98,3722.68 983.5,1861.34 1967,3722.68 2950.49,5584.03 655.67,1240.89 1311.32,2481.78 1966.99,3722.68 311.44,589.42 622.88,1178.85 934.32,1768.28 262.27,496.35 524.53,992.71 786.8,1489.07 579.78,1097.28 990.45,1861.95 1376.89,3053.56 348.62,1074.98 561.51,1985.82 741.21,3101.19 50.92,316.06 183.09,1394.3 558.74,1448.45 370.95,53.46 910.37,-474.25 1496.52,338.32 241.81,335.22 673.22,1231.03 891.64,1644.4 967.11,1830.32 1934.2,3660.64 2901.31,5490.96 327.82,620.44 655.66,1240.89 983.49,1861.34 448.93,849.63 963.3,1763.12 1376.9,2619.69 541.55,1121.57 739.86,2423.77 842.96,3655.6 27.85,332.66 -37.43,1822.92 460.84,1788.06 368.13,-25.75 962.14,-519.22 1461.61,-52.56 238.6,222.92 607.19,978 775.17,1295.92 655.66,1240.89 1311.33,2481.79 1966.99,3722.69 672.06,1271.92 1344.11,2543.83 2016.16,3815.75l704.82 -1337.73c210.35,-399.19 111.52,-383.01 -97.77,-780.74 -1501.41,-2849.57 -2989.76,-5727.82 -4512.36,-8563.41 -398.75,-742.59 -618.58,-918.36 -1423.1,-641.83 -612.92,210.67 -649.48,-283.09 -738.47,-801.9 -97.4,-567.81 -182.88,-1065.15 -261.99,-1640.1 -188.26,-1368.48 -857.7,-3144.54 -1500.09,-4363.62 -784.81,-1489.35 -1569.49,-2978.77 -2354.23,-4468.15 -995.7,-1889.76 -1982.97,-3796.37 -2991.85,-5677.58 -1331.54,-2482.89 -1617.28,33.08 -2280.66,-2087.99 -645.17,-2062.83 -846.77,-3845.95 -1888.29,-5825.15 -1306.61,-2482.92 -2615.85,-4964.55 -3923.73,-7446.81 -1307.91,-2482.3 -2615.81,-4964.6 -3923.73,-7446.91 -343.32,-651.6 -686.65,-1303.2 -1029.97,-1954.82l-49.05 -93.08c-181.5,-344.9 -49.21,-771.73 295.51,-953.33 344.71,-181.6 771.31,-49.23 952.82,295.67 310.62,589.54 621.25,1179.08 931.87,1768.63 1275.21,2420.23 2550.41,4840.47 3825.61,7260.7 326.99,620.57 653.96,1241.14 980.94,1861.72 326.97,620.57 653.94,1241.14 980.92,1861.71 737.29,1399.31 1394.94,2514.75 1863.77,4045.51 371.28,1212.32 614.32,2456.66 980.92,3642.57 131.16,424.32 258.19,989.43 784.74,906.36 575.88,-90.86 768.07,30.26 1128.06,526.85 360.03,496.66 823.75,1471.46 1128.07,2049.03 1275.2,2420.23 2550.41,4840.46 3825.61,7260.7 772.55,1466.24 1408.06,2545.28 1863.76,4160.83 305.23,1082.09 546.54,2244.82 882.84,3298.83 101.96,319.57 253.33,918.64 675.53,888.32 351.57,-25.25 583.58,-60.42 893.42,194.25 480.12,394.63 1333.88,2179.93 1668.1,2814.25 261.58,496.46 523.16,992.92 784.74,1489.38 326.98,620.57 653.96,1241.14 980.93,1861.72 310.63,589.54 621.26,1179.09 931.88,1768.63 506.82,961.89 1013.62,1923.77 1520.43,2885.67l49.05 93.08 693.4 -1316.01c279.01,-529.57 196.1,-544.3 -58.81,-1028.67 -653.93,-1241.11 -1307.86,-2482.22 -1961.79,-3723.33 -1291.35,-2450.86 -2577.96,-4905.7 -3874.55,-7353.61 -1296.86,-2448.44 -1665.65,-41.51 -2354.14,-2429.87 -551.41,-1912.77 -929.05,-3801.09 -1863.71,-5575.32 -490.38,-930.85 -980.91,-1861.61 -1471.35,-2792.42l-98.09 -186.17c-1274.51,-2418.94 -2541.34,-4846.96 -3825.5,-7260.15 -1478.97,-2779.3 -1640.85,551.98 -2476.77,-2718.82 -510.06,-1995.8 -815,-3529.7 -1790.14,-5379.77 -1798.79,-3412.8 -3596.62,-6826.11 -5394.93,-10239.15 -173.9,-330.46 -47.13,-739.43 283.14,-913.42 330.28,-174 739.02,-47.16 912.93,283.29 1439.16,2731.42 2888.14,5460.98 4318.62,8196.55 973.34,1861.37 1223.59,3743.29 1840.33,5698.25 127.66,404.64 265.69,983.18 760.67,961.96 501.78,-21.51 658.65,-37.4 1030.58,400.93 402.51,474.37 1095.99,1911.28 1423.19,2532.26 948.78,1800.72 1897.57,3601.45 2846.37,5402.18 729.83,1385.17 1505.43,2799.32 2208.14,4192.02 616.77,1222.38 1129.83,5009.12 1717.92,5575.5 481.66,463.86 846.17,-683.26 1913.9,1316.72 330.11,618.35 654.64,1242.02 981.5,1862.36 1308.67,2483.76 2617.36,4967.53 3926.03,7451.29 670.7,1272.93 1341.39,2545.85 2012.09,3818.78l809.19 -1535.8c213.23,-404.67 118.67,-378.44 -87.12,-769.51 -653.96,-1241.15 -1307.92,-2482.32 -1961.87,-3723.48 -310.63,-589.55 -621.26,-1179.09 -931.9,-1768.65 -326.97,-620.57 -653.95,-1241.15 -980.94,-1861.74 -294.27,-558.51 -588.56,-1117.04 -882.83,-1675.56 -326.99,-620.58 -653.97,-1241.16 -980.94,-1861.73 -326.98,-620.59 -653.96,-1241.17 -980.93,-1861.74 -274.02,-520.06 -1113.98,-2254.7 -1480.26,-2557.7 -682.2,-564.36 -1111.24,1330.98 -1501.02,-1700.45 -136.97,-1065.21 -128.1,-1643.25 -648.2,-2630.29 -1291.63,-2451.25 -2583.12,-4902.58 -3874.7,-7353.87 -114.44,-217.21 -228.89,-434.4 -343.32,-651.61 -897.45,-1703.28 -1787.08,-3424.07 -2697.58,-5118.78 -1362.65,-2536.3 -1610.53,346.45 -2354.24,-2347.15 -563.05,-2039.26 -857.22,-3749.67 -1863.78,-5659.33 -637.79,-1210.02 -1275.22,-2420.26 -1912.83,-3630.38l-49.04 -93.09c-166.31,-316.02 -45.08,-707.12 270.76,-873.51 315.85,-166.4 706.74,-45.11 873.05,270.91 439.55,834.24 896.73,1676.37 1324.39,2514.71 568.35,1114.11 982.59,3450.13 1352.98,4732.76 99.8,345.59 303.01,1184.34 756.34,1160.9 408.22,-21.11 535.04,-173.38 932,191.62 384.26,353.33 688.7,992.89 932.01,1454.66 964.7,1830.94 1929.42,3661.89 2894.13,5492.83 1291.72,2451.6 2583.45,4903.19 3875.19,7354.79 327.02,620.66 654.03,1241.32 981.06,1861.97 293.61,557.25 474.61,892.45 696.45,1494.87 307.66,835.46 388.7,1052.82 940.95,1747.33 380.33,478.32 898.48,1570.7 1207.66,2157.52 343.38,651.69 686.75,1303.38 1030.12,1955.08l49.05 93.09c212.57,403.43 425.13,806.86 637.7,1210.29l49.04 93.09zm20481.4 -17545.32c-9.72,-13.68 -18.66,-28.15 -26.69,-43.42 -310.1,-588.97 -752.51,-1563.21 -1562.33,-1473.53 -481.14,53.28 -583.85,-151.42 -752.13,-617.08 -284.86,-788.17 -467.51,-1829.9 -707.4,-2668.66 -179.78,-628.59 -363.92,-1189.39 -613.5,-1794.32 -532.48,202.16 -799.54,883.65 -1052.02,1362.04 -81.41,154.23 -162.82,308.46 -244.22,462.69 -83.64,158.48 -61.31,68.88 49.49,279.16 602.3,1143.13 1025.79,1903.48 1425.74,3148.01 406.97,1266.36 637.32,2642.43 1057.02,3863.62 134.24,390.61 277.32,918.74 762.03,809.07 165.81,-37.5 215.79,-66.9 393.31,-39.86 312.62,-1168.41 705.02,-2214.35 1270.7,-3287.72zm-5471.14 -3800.6l-1236.48 2342.69c655.78,1244.6 1311.54,2489.2 1967.31,3733.8 482.13,915.06 812.21,1541.41 1155.79,2526.05 240.26,688.53 430.59,1363.93 614.78,2068.98 476.24,45.85 593.78,131.04 835.85,-464 161.45,-396.88 287.52,-909.05 399.57,-1326.63 -447.86,0.16 -598.87,-580.74 -712.95,-929.43 -279,-852.76 -489.56,-1836.36 -737.53,-2716.75 -396.31,-1407.07 -657.84,-2143.94 -1352.14,-3461.66 -311.4,-591.02 -622.81,-1182.03 -934.2,-1773.05zm-1733.91 3285.14l-1203.07 2279.39 3739.36 7097c321.52,-610.22 665.05,-1396.32 1202.03,-1833.96 -454.5,-1437.37 -1076.06,-2489.67 -1770.78,-3808.2 -639.45,-1213.63 -1278.9,-2427.25 -1918.36,-3640.87l-49.18 -93.36zm-1733.91 3285.13c-468,886.7 -718.32,1346.29 -946.93,2096.67 -450.99,1480.31 25.55,910.37 712.48,1948.21 342.4,517.31 732.59,1336.55 1033.65,1907.93 295.33,560.51 590.66,1121.02 885.99,1681.53 295.33,560.5 590.65,1121.02 885.98,1681.53l1168.65 -2217.99 -3739.82 -7097.88zm881.63 12522.48l1125.78 -2136.64c-666.49,-1264.96 -1331.19,-2578.84 -2018.33,-3826.89 -561.27,-1019.44 -908.67,-1131.81 -1186.72,-1107.95 -1190.36,102.12 -416.67,1032.36 -1269.6,986.28 -478.94,-25.88 -413.71,-109.84 -307.66,286.76 154.13,576.45 582.78,2609.74 966.75,2943.15 465.99,404.63 847.7,-637.39 1906.75,1367.29 261.77,495.52 521.92,992.1 783.03,1488zm-5458.74 -3850.48c23.67,28.83 44.8,60.48 62.86,94.78 623.9,1184.11 992.96,1923.98 1376.61,3203.08 338.89,1129.86 563.64,2317.46 909.56,3422.3 106.92,341.51 257.43,956.64 712.88,906.66 287.07,-31.49 394.72,-108.97 688.31,25.96 302.16,-975.01 580.76,-1661.91 1063,-2577.17 83.1,-157.71 60.45,-68.6 -50.2,-278.72 -279.62,-531 -733.24,-1552.72 -1476.6,-1454.57 -465.66,61.48 -557.04,71.71 -782.6,-459.85 -310.12,-730.85 -577.52,-2042.53 -790.76,-2853.56 -172.5,-656.07 -357.89,-1284.24 -589.85,-1921.94 -396.83,428.94 -747.48,1181.15 -1025.54,1707.98l-97.67 185.05zm-624.6 1183.39l-1080.79 2047.71c34.3,37.04 64.38,79.09 89.01,125.89 309.7,587.79 619.41,1175.59 929.12,1763.39 713.56,1354.3 1467.94,2634.24 1956.03,4088.89 308.86,920.49 549.16,1886.52 782.41,2829.16 480.12,33.05 610.33,-491.58 735.33,-884.71 129.78,-408.15 236.23,-827.03 343.16,-1241.72 -217.75,193.41 -484.78,-150.71 -570.6,-319.3 -338.98,-665.89 -729.05,-2487.96 -955.1,-3303.49 -382.7,-1380.7 -669.06,-2145.99 -1346.94,-3432.56 -293.88,-557.76 -587.75,-1115.5 -881.63,-1673.26zm-1733.91 3285.14l-1026.58 1945c48.55,46.27 90.37,101.28 122.82,164.27 551.27,1065.63 1164.28,2247.28 1943.14,3742.43 600.02,1151.88 1160.62,2224.27 1678.24,3208.93 250.13,-474.77 568.37,-1154.38 1048.92,-1431.22 -650.77,-1504.93 -1112.52,-2592.29 -1898.12,-4083.31 -590.03,-1119.82 -1180.05,-2239.64 -1770.08,-3359.46l-98.34 -186.64zm-1708.85 3237.68l-1027.69 1947.09 3748.16 7113.71 859.14 -1594.43c129.37,-245.54 141.91,-333.71 22.4,-560.84 -735.72,-1396.32 -1370.94,-2609.31 -1950.17,-3721.28 -440.21,-845.06 -1005.25,-1934.89 -1651.84,-3184.25zm2470.99 -34670.94c-113.12,-214.95 -30.65,-480.98 184.19,-594.16 214.84,-113.19 480.72,-30.67 593.84,184.28l4203.51 7977.93c113.12,214.95 30.65,480.98 -184.19,594.16 -214.84,113.19 -480.72,30.67 -593.84,-184.28l-4203.51 -7977.93zm-3453.11 22.23c-120.73,-229.4 -32.73,-513.3 196.54,-634.08 229.28,-120.79 513.02,-32.74 633.74,196.65l4201.28 7973.69c120.72,229.4 32.72,513.29 -196.55,634.08 -229.28,120.78 -513.02,32.74 -633.74,-196.66l-4201.27 -7973.68zm-3453.12 22.18c-128.32,-243.83 -34.78,-545.59 208.92,-673.98 243.7,-128.39 545.3,-34.8 673.62,209.04l4195.96 7963.6c128.32,243.84 34.78,545.6 -208.92,673.99 -243.71,128.39 -545.31,34.8 -673.62,-209.04l-4195.96 -7963.61zm-3453.13 22.21c-135.92,-258.27 -36.83,-577.9 221.3,-713.89 258.13,-135.99 577.59,-36.85 713.5,221.42 700.61,1329.72 1400.34,2657.17 2099.34,3982.85 699.02,1325.69 1397.35,2649.67 2095.19,3972.46 135.91,258.27 36.83,577.9 -221.3,713.89 -258.13,135.99 -577.59,36.85 -713.5,-221.42 -697.84,-1322.79 -1396.18,-2646.77 -2095.19,-3972.46 -699,-1325.68 -1398.73,-2653.13 -2099.34,-3982.85zm-3453.1 22.21c-143.51,-272.7 -38.9,-610.2 233.65,-753.79 272.56,-143.59 609.88,-38.92 753.39,233.78l4187.16 7946.89c143.51,272.7 38.91,610.2 -233.65,753.79 -272.56,143.59 -609.87,38.93 -753.39,-233.78l-4187.16 -7946.89zm-3453.13 22.22c-151.11,-287.14 -40.95,-642.5 246.03,-793.7 286.99,-151.19 642.16,-40.97 793.27,246.17l4182.71 7938.44c151.11,287.14 40.95,642.5 -246.03,793.7 -286.98,151.19 -642.16,40.97 -793.27,-246.17l-4182.71 -7938.44z"/></g><text x="0" y="60015" fill="#000000" font-size="5px" font-weight="bold" font-family="'Helvetica Neue', Helvetica, Arial-Unicode, Arial, Sans-serif">Created by Olena Panasovska</text><text x="0" y="60020" fill="#000000" font-size="5px" font-weight="bold" font-family="'Helvetica Neue', Helvetica, Arial-Unicode, Arial, Sans-serif">from the Noun Project</text></svg>